# xmcd CD database file
#
# Track frame offsets:
#	150
#	10743
#	38324
#	61449
#	75662
#	95573
#	113663
#	126038
#	143694
#	163698
#	180035
#
# Disc length: 2636 seconds
#
# Revision: 1
# Processed by: cddbd v1.4PL0 Copyright (c) Steve Scherf et al.
# Submitted via: CDex 1.40Beta9
#
DISCID=770a4a0b
DTITLE=Kåre Virud - I Teateret
DYEAR=2000
DGENRE=Blues
TTITLE0=Ikke jeg
TTITLE1=Uflaks
TTITLE2=Ford Coupé
TTITLE3=Fødeby blues
TTITLE4=Storgata
TTITLE5=Feite Margot
TTITLE6=Dama mi
TTITLE7=Sjuende sønn
TTITLE8=Hul hånd
TTITLE9=Damer i regn
TTITLE10=Blind Lemon
EXTD=YEAR: 2000 ID3G: 0
EXTT0=
EXTT1=
EXTT2=
EXTT3=
EXTT4=
EXTT5=
EXTT6=
EXTT7=
EXTT8=
EXTT9=
EXTT10=
PLAYORDER=
